<svg version="1.0" xmlns="http://www.w3.org/2000/svg"
 width="200pt" height="200pt" viewBox="0 0 90 90"
 preserveAspectRatio="xMidYMid meet">
<g transform="translate(-140,100) scale(0.1,-0.1)"
fill="#000000" stroke="none">
<path d="M1840 929 c-23 -6 -23 -7 8 -8 39 -1 88 -22 121 -51 40 -34 16 -33
-34 2 -44 31 -51 33 -126 31 -43 -2 -96 -10 -118 -19 -48 -19 -118 -92 -125
-129 -8 -43 -17 -43 -14 0 2 29 11 47 38 74 19 19 35 40 35 46 0 5 9 11 20 12
11 1 43 9 70 17 l50 14 -47 0 c-31 0 -45 -4 -41 -11 4 -6 0 -8 -10 -4 -21 8
-115 -70 -116 -95 -1 -10 -6 -18 -12 -18 -5 0 -7 -4 -4 -10 3 -5 -2 -10 -12
-10 -10 0 -25 -5 -33 -11 -12 -8 -10 -9 7 -4 30 8 42 0 36 -25 -5 -19 -7 -19
-18 -4 -10 15 -12 15 -12 1 0 -16 23 -31 36 -23 4 3 8 -4 8 -15 1 -10 -3 -19
-8 -19 -6 0 -7 5 -4 10 3 6 3 10 -2 10 -4 0 -9 -26 -9 -58 -2 -49 -1 -52 6
-19 10 51 18 56 17 10 0 -21 -7 -47 -16 -58 -14 -17 -14 -18 0 -8 13 11 18 3
37 -58 12 -39 19 -75 16 -81 -4 -6 -2 -8 4 -4 6 4 13 -7 17 -26 11 -49 44
-105 72 -117 13 -6 22 -14 20 -19 -3 -4 13 -7 34 -6 28 0 54 10 87 34 26 19
66 47 89 62 24 16 46 40 49 53 3 13 16 33 29 45 l23 21 0 -41 c1 -23 -3 -38
-9 -35 -5 4 -9 -3 -9 -15 0 -12 -14 -41 -30 -66 -17 -24 -28 -44 -24 -44 4 0
-21 -18 -56 -41 -58 -37 -66 -40 -89 -28 -14 7 -30 12 -34 10 -5 -1 -6 3 -2 8
6 11 -33 36 -42 28 -3 -3 0 -14 6 -24 6 -10 11 -12 11 -5 0 6 4 12 8 12 5 0 7
-15 6 -32 -2 -18 -1 -25 2 -15 5 17 7 17 30 2 13 -8 24 -13 24 -9 0 3 11 -1
23 -9 19 -12 24 -13 24 -2 0 8 -4 12 -9 9 -4 -3 -8 -1 -8 4 0 9 73 62 86 62 4
0 1 -7 -6 -15 -7 -8 -10 -15 -7 -15 11 0 106 129 96 132 -5 2 -3 12 5 23 15
19 15 18 16 -20 0 -22 4 -46 9 -54 5 -8 7 5 4 34 l-6 47 54 -57 c58 -61 85
-80 93 -66 3 5 -19 29 -50 55 -73 60 -93 86 -100 132 -8 55 -8 53 20 119 19
45 26 77 26 130 0 53 -3 66 -11 55 -9 -12 -10 -12 -5 3 3 10 6 24 6 30 0 6 7
2 15 -9 22 -29 19 -139 -5 -193 -11 -24 -19 -46 -17 -48 3 -2 15 20 27 49 30
67 29 156 -1 205 -11 18 -25 31 -30 27 -5 -3 -9 -7 -9 -10 0 -3 5 -2 10 1 6 3
10 2 10 -4 0 -5 -5 -13 -10 -16 -15 -9 -24 23 -11 39 8 10 0 22 -37 53 -74 62
-122 84 -162 72z m20 -54 c0 -5 4 -4 8 3 7 10 16 9 43 -4 40 -20 100 -79 91
-90 -4 -4 -1 -3 7 1 11 6 13 4 8 -9 -4 -9 -3 -15 2 -11 11 6 27 -42 36 -110 6
-42 5 -48 -7 -34 -22 27 -53 28 -97 4 -30 -18 -50 -22 -81 -18 -33 5 -38 8
-29 20 10 11 9 12 -5 7 -9 -3 -16 -10 -16 -16 0 -5 -4 -7 -9 -4 -14 9 -42 -5
-35 -16 4 -6 1 -8 -7 -6 -8 3 -29 -1 -47 -8 -48 -19 -83 -2 -72 35 5 14 11 39
14 54 4 15 11 25 16 22 5 -3 11 -1 15 5 3 5 1 10 -5 10 -6 0 -8 5 -5 10 4 6
10 8 15 5 5 -3 12 0 16 6 5 8 3 9 -6 4 -8 -5 -11 -3 -8 6 3 8 10 14 16 14 7 0
11 3 10 6 -4 8 32 49 41 47 3 -1 35 13 71 30 62 29 63 31 25 25 -53 -7 -116
-44 -155 -90 -33 -41 -80 -132 -80 -157 0 -9 -4 -16 -10 -16 -18 0 -38 45 -35
77 1 18 -1 30 -6 27 -26 -16 5 -114 36 -114 11 0 29 -98 20 -108 -2 -2 -14 2
-27 8 -18 9 -15 5 10 -18 18 -18 32 -41 32 -54 0 -13 7 -45 15 -72 8 -27 13
-51 11 -53 -8 -8 -36 29 -42 55 -3 15 -14 50 -25 77 -11 28 -21 59 -23 70 -2
11 -9 33 -15 48 -18 45 -13 141 9 201 22 58 82 122 122 130 13 3 32 7 43 9 37
8 115 2 115 -8z m168 -58 c4 -20 -9 -22 -26 -5 -17 17 -15 27 6 24 9 -2 18
-10 20 -19z m10 -236 c3 -41 2 -43 -19 -38 -12 3 -32 -1 -47 -11 -25 -16 -25
-16 -13 6 7 13 11 33 9 45 -4 32 11 49 40 45 24 -3 27 -8 30 -47z m-188 17
c47 -2 59 -12 30 -28 -11 -6 -19 -14 -19 -18 1 -4 1 -14 -1 -22 -1 -11 -4 -9
-10 5 -8 19 -12 -8 -14 -90 -1 -17 -8 -20 -54 -21 -31 0 -47 3 -40 8 9 5 6 8
-10 8 -13 0 -36 7 -51 15 -25 12 -30 22 -33 62 -3 27 -3 50 -1 52 2 2 13 -1
26 -7 40 -20 102 -34 132 -29 24 3 21 4 -13 6 -27 0 -45 6 -48 15 -3 9 -13 12
-22 9 -13 -4 -14 -3 -6 6 6 7 24 13 40 15 16 2 33 4 37 5 5 0 5 6 1 13 -4 6
-3 8 4 5 5 -4 29 -8 52 -9z m95 -39 c-4 -59 -10 -69 -28 -44 -20 27 -2 86 29
95 1 0 0 -23 -1 -51z m-49 -13 c-4 -15 0 -28 9 -36 21 -17 19 -21 -20 -53
l-35 -28 6 37 c3 21 10 48 15 61 5 13 5 23 1 23 -7 0 19 20 27 20 2 0 0 -11
-3 -24z m117 -22 c10 -10 -23 -66 -36 -61 -20 6 -20 40 -1 54 20 15 28 16 37
7z m-62 -51 c3 -39 -6 -62 -17 -50 -4 4 -1 15 7 24 12 17 12 17 -6 1 -13 -13
-15 -20 -7 -30 5 -7 12 -16 14 -19 4 -8 -23 -40 -31 -35 -3 3 -33 -16 -65 -40
-33 -24 -61 -43 -63 -41 -1 2 8 30 20 63 15 37 29 59 39 59 8 0 28 15 43 33
15 17 31 30 36 26 5 -3 9 2 9 10 0 22 20 20 21 -1z m-253 -43 c31 -15 52 -19
81 -14 l40 6 -24 -58 c-14 -33 -25 -65 -25 -72 0 -7 -12 -17 -26 -22 -32 -13
-43 -13 -24 0 13 8 12 10 -3 10 -10 0 -22 12 -27 26 -16 41 -13 53 13 47 20
-4 20 -4 -3 9 -14 7 -27 25 -28 38 -2 14 -9 31 -14 38 -14 16 -9 15 40 -8z
m278 -128 c-17 -16 -18 -16 -5 5 7 12 15 20 18 17 3 -2 -3 -12 -13 -22z m189
-56 c6 -4 1 -4 -10 2 -11 6 -29 21 -40 34 -19 22 -19 22 10 -2 17 -14 35 -29
40 -34z"/>
</g>
</svg>