<svg version="1.0" xmlns="http://www.w3.org/2000/svg"
 width="200pt" height="200pt" viewBox="0 0 90 95"
 preserveAspectRatio="xMidYMid meet">
<g transform="translate(-70,100) scale(0.1,-0.1)"
fill="#000000" stroke="none">
<path d="M1090 951 c-74 -23 -137 -80 -171 -155 -27 -59 -26 -188 1 -239 11
-21 18 -42 15 -47 -3 -4 0 -10 5 -12 16 -5 24 -137 12 -180 -9 -35 -8 -41 24
-83 19 -25 38 -45 41 -45 3 0 -2 9 -12 20 -14 15 -18 36 -18 87 l0 68 -6 -55
c-4 -37 -8 -49 -13 -37 -4 10 -5 46 -1 80 3 34 8 56 10 50 3 -7 4 -15 3 -19
-1 -4 2 -10 8 -13 5 -3 29 -36 54 -73 24 -38 47 -66 50 -63 2 3 11 -6 18 -20
7 -14 20 -25 28 -25 10 0 9 5 -5 18 -25 22 -115 147 -137 189 -9 18 -16 39
-16 48 0 8 -4 15 -10 15 -5 0 -10 7 -10 15 0 14 3 13 25 -2 13 -10 22 -24 20
-31 -3 -7 2 -15 10 -18 8 -4 13 -10 10 -14 -3 -5 12 -21 32 -37 21 -15 40 -31
41 -36 2 -4 8 -4 14 -1 6 4 -11 20 -37 36 -26 16 -45 31 -43 33 2 3 35 -7 74
-20 38 -14 81 -25 95 -25 15 0 29 -7 33 -15 6 -17 -5 -20 -20 -5 -7 7 -17 5
-30 -5 -18 -14 -18 -14 6 -13 49 2 57 -1 40 -13 -12 -9 -11 -10 5 -4 33 11 37
11 43 -4 3 -9 0 -11 -8 -6 -8 5 -10 2 -7 -11 4 -11 7 -52 8 -93 l2 -75 -40
-17 c-22 -9 -44 -22 -47 -28 -4 -6 17 1 46 14 l53 25 1 62 c3 161 3 160 20
154 9 -3 12 -2 9 5 -6 9 -23 7 -61 -8 -6 -2 -11 3 -11 12 0 14 9 16 59 12 67
-6 57 -24 88 153 19 110 32 309 19 288 -4 -5 -10 7 -14 29 -10 56 -78 118
-145 132 -57 12 -123 13 -160 2z m127 -11 c-1 -3 9 -16 22 -29 17 -17 20 -25
11 -31 -9 -6 -7 -10 8 -14 21 -7 46 -62 56 -126 l6 -35 -92 1 c-51 1 -66 -1
-33 -2 33 -2 75 -6 93 -9 l32 -6 0 -79 c0 -76 -1 -80 -22 -81 l-23 -2 23 -4
c25 -5 28 -13 10 -32 -8 -9 -9 -11 -1 -7 8 4 10 -9 6 -49 -4 -37 -2 -55 6 -55
8 0 11 47 11 154 l0 155 30 -9 c17 -5 30 -5 30 0 0 5 -13 11 -30 15 -25 5 -30
12 -30 34 0 15 -6 49 -14 74 -7 25 -11 48 -8 51 3 4 1 6 -5 6 -6 0 -23 19 -38
41 l-27 42 28 -7 c31 -8 95 -52 92 -64 -1 -4 6 -23 17 -42 25 -48 32 -180 12
-237 -8 -24 -11 -41 -7 -38 7 5 -17 -136 -30 -170 -8 -20 -14 -21 -67 -17 -32
2 -58 5 -59 6 -1 0 -4 13 -8 29 -5 23 -3 27 16 27 13 1 34 7 48 15 l25 15 -25
-4 c-14 -2 -37 -7 -51 -11 -25 -6 -27 -3 -38 42 -7 26 -26 80 -42 118 -17 39
-33 84 -35 100 -3 17 -15 50 -27 75 -12 25 -22 47 -22 50 -1 12 -17 30 -24 26
-4 -3 -13 -1 -20 4 -14 8 -53 -18 -46 -31 11 -17 15 -179 4 -179 -5 0 -7 5 -4
10 3 6 -1 10 -9 10 -8 0 -19 -7 -24 -16 -11 -19 3 -103 19 -119 8 -7 9 -3 3
15 -20 65 -6 113 22 75 17 -23 14 -107 -3 -100 -7 2 -15 0 -18 -4 -2 -5 4 -11
15 -14 19 -5 29 -27 12 -27 -9 0 -40 31 -41 40 0 3 -9 26 -21 52 -26 60 -25
154 3 218 41 97 138 162 234 157 28 -1 51 -4 50 -7z m-163 -106 c-1 -5 6 -25
16 -44 32 -65 33 -85 2 -98 -27 -11 -27 -11 -2 -7 18 3 29 -2 38 -15 12 -20
82 -216 82 -231 0 -4 -17 -10 -37 -12 l-38 -4 43 -1 c23 -1 42 -6 42 -11 0 -5
3 -16 6 -25 5 -13 -3 -12 -53 3 -88 28 -110 41 -127 75 -14 29 -14 31 4 34 11
2 20 8 20 13 0 6 5 7 10 4 6 -4 9 -3 8 2 -2 4 6 17 18 29 14 14 21 34 22 70
l1 49 -13 -48 c-15 -54 -45 -100 -68 -105 -11 -2 -15 9 -17 50 -1 29 -4 60 -7
69 -2 9 2 24 10 32 14 13 14 16 0 21 -12 5 -14 19 -10 78 3 46 2 58 -3 33 l-7
-40 -5 42 c-2 25 0 44 6 47 18 6 60 -1 59 -10z"/>
<path d="M1251 257 c0 -11 -17 -35 -36 -54 -22 -22 -34 -42 -30 -51 9 -23 77
73 72 101 -3 17 -5 18 -6 4z"/>
</g>
</svg>