<svg version="1.0" xmlns="http://www.w3.org/2000/svg"
 width="200pt" height="200pt" viewBox="0 0 80 90"
 preserveAspectRatio="xMidYMid meet">
<g transform="translate(0,200) scale(0.1,-0.1)"
fill="#000000" stroke="none">
<path d="M426 1983 c-3 -4 -13 -8 -20 -9 -21 -3 -102 -66 -114 -89 -40 -74
-52 -111 -52 -159 0 -28 -9 -92 -20 -142 -17 -80 -31 -208 -31 -287 0 -15 -4
-25 -8 -22 -5 3 -7 -5 -3 -17 5 -21 5 -21 14 2 5 13 11 45 14 70 3 24 7 47 9
48 2 2 9 -15 15 -38 14 -52 77 -140 122 -170 31 -22 31 -21 -7 17 -22 22 -59
77 -82 120 -38 70 -43 88 -43 143 0 35 5 92 11 127 10 58 12 62 26 46 14 -17
14 -17 7 2 -13 33 -17 155 -5 155 6 0 8 7 5 15 -4 8 -1 15 5 15 6 0 11 -6 11
-12 0 -7 7 -2 16 10 13 19 22 22 47 17 18 -4 43 -17 57 -29 l25 -21 -20 25
c-37 45 -42 49 -73 48 -20 -1 -33 -8 -39 -21 -5 -12 -12 -16 -16 -11 -11 18
34 73 93 113 54 36 67 39 149 46 86 7 93 6 135 -19 56 -33 101 -87 121 -145
31 -91 15 -161 -67 -291 -23 -36 -48 -75 -55 -88 l-14 -23 -28 38 c-40 54 -49
61 -151 97 -50 18 -88 35 -85 38 4 3 1 9 -6 14 -8 4 -10 3 -5 -4 8 -14 -13
-16 -33 -3 -28 18 4 171 36 171 7 0 13 9 13 20 0 11 -5 20 -11 20 -5 0 -7 -5
-4 -11 4 -6 -2 -17 -14 -25 -21 -15 -40 -69 -42 -119 l-1 -30 -9 34 c-6 18
-13 30 -16 27 -7 -6 12 -79 29 -110 5 -10 11 -28 13 -40 3 -20 3 -20 -8 -3
-26 41 -37 51 -23 20 9 -17 20 -34 26 -38 5 -3 12 -28 16 -55 4 -27 10 -47 14
-45 5 3 6 -4 3 -15 -3 -12 0 -20 6 -20 7 0 9 -5 6 -11 -4 -6 -4 -27 0 -46 5
-27 9 -33 16 -22 5 8 9 21 9 29 0 12 -2 12 -9 2 -4 -8 -8 8 -8 39 0 30 -4 54
-11 57 -6 2 -9 18 -6 40 3 29 2 32 -5 17 -9 -20 -10 -20 -10 1 -1 30 10 36 31
17 10 -9 18 -12 18 -8 0 4 9 0 20 -10 17 -15 20 -16 15 -3 -4 9 -2 19 4 23 6
3 11 2 11 -3 0 -18 29 -21 42 -4 12 16 11 16 -6 2 -18 -14 -19 -13 -13 2 4 12
2 15 -9 11 -7 -3 -14 0 -14 5 0 20 20 23 51 7 29 -15 30 -18 15 -34 -18 -20
-12 -33 12 -24 10 4 13 2 8 -5 -9 -14 -62 -16 -71 -2 -3 5 -12 7 -20 3 -9 -3
-22 0 -30 7 -9 7 -18 10 -21 7 -3 -3 8 -13 25 -22 17 -8 43 -33 57 -55 15 -22
29 -40 31 -40 5 0 -3 15 -29 53 -19 27 -19 27 2 27 12 0 18 -4 15 -10 -4 -6 3
-6 21 0 21 9 31 7 48 -7 l21 -18 -19 23 c-11 12 -16 22 -11 22 4 0 2 6 -4 13
-6 8 -8 17 -4 21 4 4 -1 4 -11 0 -14 -5 -17 -4 -12 4 13 21 31 13 74 -31 42
-43 45 -57 11 -57 -17 0 -79 -65 -79 -83 0 -5 -10 -23 -22 -40 -12 -17 -16
-27 -10 -23 9 6 11 1 8 -16 -3 -12 -7 -43 -10 -68 -6 -44 -5 -44 9 -20 15 25
15 24 9 -12 -10 -62 4 -43 17 22 6 33 16 60 20 60 12 0 12 47 0 54 -5 3 -11
-17 -15 -44 -4 -28 -11 -50 -16 -50 -13 0 -11 27 5 70 7 19 18 34 24 32 6 -1
11 12 11 32 0 38 21 66 49 66 23 0 34 13 124 153 86 134 98 178 73 261 -8 27
-12 54 -9 59 3 6 1 7 -5 3 -7 -4 -12 -2 -12 4 0 23 -43 71 -93 105 -50 34 -55
35 -148 35 -52 0 -99 -3 -103 -7z m-76 -416 c8 -3 34 -11 57 -19 l42 -13 -18
-24 -19 -25 -23 25 c-13 14 -18 18 -11 9 18 -25 15 -35 -6 -17 -10 10 -21 16
-23 15 -2 -2 -3 -1 -2 1 1 2 -6 16 -17 31 -19 27 -15 31 20 17z"/>
<path d="M556 1944 c12 -22 15 -40 10 -67 -4 -21 -11 -35 -17 -32 -5 4 -9 -3
-9 -14 0 -41 -128 -140 -182 -141 -10 0 -18 -4 -18 -9 0 -13 90 12 123 34 15
9 27 13 27 7 0 -6 -5 -13 -10 -15 -6 -3 -5 -4 2 -3 7 2 13 9 13 18 0 8 8 23
18 32 30 30 67 113 67 149 0 22 -8 41 -21 53 l-21 19 18 -31z"/>
<path d="M590 1840 c0 -5 3 -10 8 -10 4 0 32 -22 62 -49 l54 -49 -17 -56 c-12
-35 -22 -54 -29 -50 -6 4 -8 3 -5 -4 9 -14 -3 -43 -14 -36 -5 3 -6 -1 -3 -9 3
-8 -5 -33 -17 -56 -12 -23 -19 -45 -15 -48 8 -8 6 -11 49 87 55 125 95 249 89
273 -4 15 -9 8 -18 -29 -7 -27 -13 -53 -14 -58 0 -6 -13 3 -30 19 -16 15 -27
32 -24 36 2 4 -5 13 -16 19 -11 6 -20 7 -20 3 0 -4 -5 0 -11 10 -11 18 -29 23
-29 7z"/>
<path d="M570 1814 c0 -5 -9 -69 -20 -143 -11 -74 -18 -137 -15 -139 6 -6 13
29 31 161 8 66 13 122 10 125 -3 3 -6 1 -6 -4z"/>
<path d="M294 1787 c-17 -20 -24 -46 -14 -52 6 -4 10 -15 10 -26 0 -10 5 -19
11 -19 7 0 8 7 4 18 -13 31 -18 65 -9 59 6 -3 11 3 11 14 2 22 2 22 -13 6z"/>
<path d="M172 1387 c-7 -8 -9 -16 -6 -20 7 -7 -79 -47 -101 -47 -9 0 -13 -4
-10 -10 3 -5 1 -10 -4 -10 -6 0 -11 -4 -11 -9 0 -5 24 4 53 20 64 35 81 37 44
4 -15 -14 -24 -25 -20 -25 4 0 1 -5 -7 -11 -13 -9 -13 -10 0 -6 23 6 85 90 70
95 -9 3 -9 6 1 13 7 4 11 11 8 14 -4 3 -11 -1 -17 -8z"/>
</g>
</svg>