<svg version="1.0" xmlns="http://www.w3.org/2000/svg"
 width="200pt" height="200pt" viewBox="0 0 90 1"
 preserveAspectRatio="xMidYMid meet">
<g transform="translate(-220,155) scale(0.1,-0.1)"
fill="#000000" stroke="none">
<path d="M2580 1969 c12 -8 9 -9 -12 -5 -58 13 -144 -46 -185 -128 -54 -106
-40 -204 63 -461 47 -117 85 -165 129 -165 18 0 23 -4 20 -20 -2 -11 3 -26 11
-34 9 -10 10 -16 2 -18 -6 -2 8 -4 32 -5 28 -1 38 2 29 8 -11 7 -10 9 4 9 9 0
17 -7 17 -15 0 -10 -10 -15 -32 -15 -24 0 -29 -3 -18 -9 8 -6 18 -7 23 -4 5 3
13 -1 18 -8 6 -10 9 -11 9 -1 0 6 10 12 23 12 24 0 67 33 67 52 0 6 -11 -1
-25 -16 -40 -43 -70 -32 -43 17 9 18 9 20 -3 11 -8 -5 -26 -10 -41 -9 -15 0
-25 -2 -22 -6 2 -4 0 -10 -4 -13 -9 -5 -32 35 -32 53 0 8 38 22 62 25 5 1 22
15 40 31 18 17 28 24 24 16 -6 -8 1 -7 18 4 30 20 32 12 11 -38 -8 -20 -15
-44 -15 -54 1 -10 16 22 35 72 35 92 40 121 12 63 -9 -18 -17 -29 -17 -25 0 4
-9 3 -20 -3 -33 -18 -23 0 40 71 50 56 60 73 60 104 0 21 -4 34 -10 30 -5 -3
-10 -19 -10 -35 0 -22 -17 -49 -69 -107 -88 -99 -105 -113 -146 -120 -32 -5
-34 -4 -44 33 -23 88 -23 94 -10 94 9 0 8 4 -3 13 -17 13 -35 143 -18 132 13
-8 132 15 145 28 7 6 -2 7 -25 3 -19 -4 -58 -10 -86 -13 l-52 -6 0 50 c0 28
-3 60 -7 71 -4 14 -2 22 5 22 6 0 8 5 5 10 -3 6 -12 10 -19 10 -9 0 -11 -13
-5 -52 15 -107 15 -108 -38 -108 -25 0 -43 -3 -39 -7 3 -4 26 -7 49 -7 40 -1
42 -3 45 -33 4 -40 -2 -41 -53 -6 -24 16 -34 20 -26 9 8 -10 32 -26 54 -37 35
-18 39 -24 33 -50 -3 -16 -2 -29 2 -29 4 0 12 -21 19 -47 6 -27 14 -56 18 -65
6 -15 2 -18 -21 -18 -15 0 -25 3 -21 6 7 7 -71 165 -87 176 -6 4 -8 8 -3 8 4
0 1 11 -8 24 -8 13 -13 32 -9 42 5 16 4 17 -6 4 -9 -12 -11 -10 -6 10 3 16 -2
38 -14 57 -26 43 -35 98 -22 141 6 21 15 56 21 78 13 50 119 155 175 174 36
11 41 30 8 30 -15 0 -15 -2 -2 -11z m-51 -32 c-20 -12 -49 -37 -64 -55 -15
-17 -31 -30 -36 -26 -11 6 -49 -77 -50 -109 0 -12 -4 -31 -9 -42 -6 -13 -7 -2
-4 34 5 68 47 146 98 183 21 15 42 25 47 23 4 -3 10 -1 14 5 3 5 14 10 23 10
10 0 2 -9 -19 -23z"/>
<path d="M2807 1819 c-25 -13 -44 -33 -53 -55 -8 -19 -19 -32 -24 -29 -6 4
-10 -17 -11 -52 -2 -99 0 -111 30 -172 4 -8 20 -18 36 -23 45 -12 104 45 97
92 -3 13 -2 13 7 0 6 -8 11 -64 11 -125 0 -98 -3 -115 -25 -152 -26 -47 -18
-59 10 -16 l18 27 10 -25 c6 -13 11 -26 11 -29 1 -3 7 -14 14 -25 12 -19 12
-18 5 5 -4 14 -7 38 -7 53 1 16 -2 23 -6 17 -5 -7 -9 -3 -13 12 -13 45 -7 47
29 10 32 -34 34 -34 17 -7 -10 17 -23 36 -30 42 -14 16 -23 97 -29 278 -7 192
-7 195 -21 184 -7 -7 -14 -6 -18 1 -8 13 -13 13 -58 -11z m66 -24 c9 -20 17
-41 17 -48 -1 -12 -59 -82 -64 -75 -2 1 -6 34 -9 71 -5 68 -5 69 19 64 20 -3
22 -2 13 9 -6 8 -7 14 -2 14 5 0 17 -16 26 -35z m-64 -106 c1 -38 -4 -50 -29
-74 -29 -28 -38 -45 -22 -45 4 0 16 14 27 30 25 38 35 38 35 0 0 -16 4 -30 9
-30 5 0 7 -10 3 -22 -3 -13 -1 -19 5 -15 6 4 13 16 16 27 3 11 1 18 -4 14 -5
-3 -9 2 -9 11 0 9 5 13 10 10 6 -4 10 8 10 29 0 20 4 36 9 36 5 0 11 7 15 15
3 9 0 15 -9 15 -8 0 -14 -3 -13 -7 3 -15 -25 -62 -34 -57 -12 8 22 62 51 81
24 15 24 15 17 -17 -3 -18 -7 -47 -7 -64 l-1 -31 -8 30 c-7 26 -8 23 -9 -21
-1 -42 -6 -55 -30 -78 -60 -58 -99 -14 -100 112 -1 59 12 103 43 141 9 11 12
9 17 -15 4 -16 7 -50 8 -75z"/>
<path d="M2741 1453 c-18 -8 -36 -12 -38 -9 -3 3 -11 -1 -18 -8 -9 -9 -30 -12
-61 -8 -32 3 -45 1 -40 -7 14 -23 143 0 184 32 24 19 21 1 -4 -27 -14 -15 -24
-29 -21 -32 2 -3 18 12 35 33 34 44 23 52 -37 26z"/>
<path d="M2582 1928 c-24 -26 -45 -55 -47 -65 -2 -10 -4 -18 -6 -18 -2 0 -7
-31 -13 -95 -5 -50 -5 -51 3 -14 5 23 15 61 22 85 7 24 11 50 10 58 -1 8 2 10
10 5 7 -4 10 -3 5 4 -8 13 54 64 86 73 31 7 59 -1 51 -15 -4 -6 0 -6 9 2 13
10 23 8 57 -10 22 -12 51 -32 63 -45 19 -20 19 -23 4 -23 -23 0 -63 -27 -71
-48 -4 -11 3 -8 22 9 34 32 70 42 77 22 3 -8 11 -11 17 -7 9 5 7 11 -4 19 -9
7 -13 16 -9 20 4 5 2 5 -4 2 -6 -4 -20 3 -30 15 -29 32 -94 70 -110 64 -8 -3
-14 -1 -14 4 0 6 -19 9 -42 8 -37 -3 -49 -10 -86 -50z"/>
</g>
</svg>