<svg version="1.0" xmlns="http://www.w3.org/2000/svg"
 width="200pt" height="200pt" viewBox="0 0 90 50"
 preserveAspectRatio="xMidYMid meet">
<g transform="translate(-145,180) scale(0.1,-0.1)"
fill="#000000" stroke="none">
<path d="M1886 1940 c-49 -13 -91 -43 -126 -91 -15 -21 -30 -35 -34 -31 -4 3
-4 -2 0 -12 5 -13 4 -17 -4 -12 -6 3 -14 1 -18 -5 -5 -8 -3 -9 6 -4 10 6 11 4
6 -11 -20 -47 -26 -102 -32 -302 l-7 -213 -26 -20 c-14 -12 -41 -27 -58 -34
-39 -17 -43 -32 -8 -32 16 0 37 13 60 40 38 43 44 37 20 -20 -17 -41 -18 -46
-6 -39 4 3 14 26 21 51 l13 46 33 -62 c36 -66 70 -109 39 -49 -10 19 -22 44
-28 54 -36 73 -44 122 -39 249 3 84 8 127 16 127 7 0 10 -20 8 -59 -3 -40 1
-69 13 -90 14 -28 14 -36 0 -83 -8 -28 -13 -53 -10 -56 2 -2 10 17 16 44 l13
49 13 -70 c7 -38 11 -78 9 -88 -2 -9 0 -15 4 -12 4 3 11 -18 15 -46 4 -27 9
-48 12 -45 8 8 -37 259 -54 296 -19 43 -26 107 -14 128 10 19 -5 56 -19 47
-10 -6 -25 33 -16 42 3 4 6 -2 7 -13 1 -15 3 -13 9 6 5 17 8 19 9 8 1 -10 6
-18 11 -18 6 0 4 13 -5 31 -20 38 -16 73 9 77 19 4 19 3 3 -22 -19 -29 -22
-40 -7 -31 5 3 16 20 25 38 16 34 65 66 65 42 0 -7 -7 -28 -15 -46 -10 -25
-14 -28 -15 -14 0 13 -8 4 -20 -24 -19 -42 -19 -68 1 -55 5 3 7 13 5 22 -3 10
-1 24 5 32 8 12 9 11 5 -5 -3 -11 -1 -27 5 -35 9 -13 10 -13 6 0 -2 8 6 42 18
75 l23 60 47 3 c25 2 69 -4 97 -13 52 -18 53 -18 32 -82 -5 -15 -4 -16 6 -3
10 12 11 11 6 -10 -3 -14 -6 -29 -6 -33 0 -5 -4 -6 -9 -3 -5 4 -7 -4 -4 -16 4
-19 3 -20 -6 -8 -7 10 -11 11 -11 3 0 -7 -10 -14 -22 -14 -17 -1 -19 -2 -5 -6
36 -10 18 -42 -43 -77 -25 -14 -40 -26 -35 -26 6 0 25 9 44 21 28 17 33 18 27
4 -3 -9 -9 -29 -12 -43 -12 -48 6 -17 30 54 30 85 33 66 5 -28 -11 -39 -18
-72 -15 -76 3 -3 6 2 6 11 0 10 6 17 13 17 6 0 23 3 36 7 21 5 23 4 17 -13
-21 -53 -13 -40 33 46 51 98 68 110 30 24 -44 -100 -60 -134 -63 -134 -2 0
-35 13 -75 29 -39 17 -71 28 -71 26 0 -5 -118 33 -141 46 -17 9 -20 8 -17 -3
3 -7 45 -25 94 -39 110 -33 197 -67 205 -81 4 -6 21 20 39 58 18 38 37 71 42
73 18 7 68 124 59 139 -5 8 -2 40 7 73 19 78 10 140 -29 183 -55 63 -182 98
-273 76z m171 -25 c88 -26 139 -101 127 -185 -8 -55 -47 -170 -56 -164 -4 3
-20 -19 -34 -49 -22 -45 -34 -57 -62 -65 -20 -6 -37 -10 -39 -9 -6 7 31 117
39 117 5 0 6 5 3 10 -4 6 1 33 10 61 9 28 15 59 12 70 -5 19 -4 19 18 5 34
-22 45 -20 16 3 -23 18 -24 21 -13 76 17 85 13 100 -6 26 -12 -45 -22 -65 -35
-67 -9 -1 -15 1 -12 6 3 4 -5 8 -18 9 -12 0 -53 3 -90 7 -56 5 -67 9 -63 23
10 33 15 73 8 66 -4 -3 -7 -10 -8 -13 -3 -32 -17 -82 -22 -78 -2 3 -14 0 -26
-6 -25 -14 -89 -22 -84 -11 2 4 14 29 25 55 12 26 31 52 43 58 11 6 18 15 15
20 -7 12 46 39 64 32 9 -3 11 0 6 8 -6 9 1 11 29 8 20 -2 36 0 36 5 0 10 45 3
117 -18z m93 -372 c-11 -21 -19 -31 -16 -23 25 79 31 93 34 78 2 -9 -6 -34
-18 -55z m-530 -348 c-7 -8 -17 -15 -23 -15 -6 0 -2 7 9 15 25 19 30 19 14 0z"/>
<path d="M1835 1600 c-3 -5 -14 -10 -24 -10 -18 0 -46 -64 -35 -82 8 -13 -10
-10 -25 5 -8 6 -6 0 3 -15 10 -14 25 -29 34 -33 14 -5 15 -4 5 6 -24 24 -13
28 22 8 l35 -21 0 76 c0 75 -3 86 -15 66z m5 -70 c0 -27 -3 -50 -7 -50 -5 1
-19 10 -32 21 -18 15 -22 22 -12 28 6 4 11 12 10 17 -4 23 3 34 21 34 17 0 20
-7 20 -50z"/>
<path d="M1995 1332 c2 -2 -5 -22 -16 -45 -10 -23 -18 -62 -18 -87 1 -44 2
-44 10 14 5 36 15 64 26 72 10 7 14 14 9 14 -5 0 -1 9 9 19 16 19 16 20 -4 18
-11 0 -18 -3 -16 -5z"/>
<path d="M2033 1260 c1 -43 -5 -76 -17 -99 -14 -26 -15 -36 -5 -45 6 -6 9 -6
6 -1 -3 6 3 29 13 50 14 30 19 35 19 19 1 -12 10 -32 20 -45 19 -24 19 -23 1
36 -11 33 -23 80 -28 105 -9 45 -9 44 -9 -20z"/>
</g>
</svg>