<svg version="1.0" xmlns="http://www.w3.org/2000/svg"
 width="200pt" height="200pt" viewBox="0 0 90 95"
 preserveAspectRatio="xMidYMid meet">
<g transform="translate(0,100) scale(0.1,-0.1)"
fill="#000000" stroke="none">
<path d="M420 980 c-60 -4 -98 -13 -130 -29 -54 -29 -133 -109 -126 -128 3 -8
2 -12 -3 -8 -14 8 -18 -14 -16 -75 3 -52 2 -53 -5 -15 -6 27 -7 6 -5 -66 2
-61 10 -121 18 -140 8 -19 17 -55 21 -81 6 -43 36 -94 48 -82 8 7 -3 45 -11
39 -4 -2 -5 9 -3 26 3 17 0 29 -7 29 -6 0 -11 5 -11 10 0 15 35 12 74 -7 29
-15 36 -24 36 -48 0 -21 -3 -26 -9 -16 -6 9 -8 2 -6 -20 4 -50 6 -49 19 11 8
38 9 57 2 63 -6 5 5 6 24 4 19 -2 53 2 75 10 22 8 45 16 50 17 6 1 39 12 74
25 54 21 68 31 93 70 15 25 33 63 39 83 12 47 29 50 28 6 -1 -32 -1 -32 -10
-8 -7 21 -8 19 -4 -10 4 -27 2 -31 -6 -20 -8 12 -9 10 -4 -9 5 -15 3 -21 -3
-17 -5 3 -13 -1 -16 -10 -9 -24 -7 -31 4 -14 5 8 10 11 10 5 0 -14 -16 -37
-26 -37 -15 -1 -54 -35 -47 -42 6 -5 -12 -10 -29 -7 -5 0 -8 -5 -8 -11 0 -9
-4 -8 -11 2 -8 12 -10 9 -6 -12 2 -16 0 -28 -4 -28 -5 0 -9 10 -10 23 0 15 -2
17 -6 7 -3 -8 -11 -18 -17 -22 -7 -5 -7 -8 2 -8 7 0 10 -5 6 -12 -4 -7 -3 -8
4 -4 15 9 26 -35 17 -66 -5 -20 -4 -20 5 -6 6 10 12 38 13 63 1 33 7 47 20 51
9 3 31 17 48 32 27 22 31 23 26 6 -5 -15 -11 -59 -19 -123 -2 -18 3 -24 11
-12 6 9 8 4 7 -16 -1 -35 -17 -56 -70 -95 -21 -15 -32 -28 -24 -28 8 0 27 13
43 30 39 40 45 30 10 -17 -22 -28 -23 -33 -7 -19 12 10 30 36 39 57 15 36 39
57 27 25 -3 -8 -1 -17 5 -21 7 -3 8 0 5 9 -8 22 15 20 51 -4 17 -11 35 -20 40
-20 6 0 -6 10 -25 22 -19 12 -41 30 -48 40 -7 10 -17 16 -21 14 -17 -11 -21
151 -4 185 38 78 46 120 40 212 -3 51 -12 109 -20 128 -18 45 -65 83 -82 69
-9 -7 -16 -6 -25 5 -11 13 -10 15 6 10 10 -3 6 1 -11 9 -16 8 -38 12 -49 9
-12 -3 -16 -1 -12 6 4 6 6 10 4 9 -2 0 -41 -4 -88 -8z m136 -41 c21 -15 48
-41 58 -59 l19 -33 -34 26 c-31 23 -42 26 -92 22 -59 -5 -104 -22 -126 -49 -8
-9 -11 -16 -7 -16 4 0 -1 -15 -10 -32 -25 -49 -43 -124 -33 -139 5 -8 9 -17 9
-21 0 -10 -71 -10 -134 -2 -44 6 -46 8 -46 38 0 24 3 28 10 16 8 -11 10 0 9
40 -1 84 -2 83 26 78 14 -3 25 -1 25 3 0 5 -11 9 -25 9 -25 0 -25 1 -10 30 18
36 93 89 149 105 23 7 71 12 107 11 53 -1 73 -6 105 -27z m76 -24 c7 0 14 -6
14 -12 1 -7 2 -21 3 -30 1 -16 3 -16 12 -3 8 12 9 10 4 -9 -5 -17 -4 -21 5
-16 8 5 11 3 9 -4 -3 -7 -7 -13 -11 -14 -9 -3 -77 101 -70 108 3 3 9 0 13 -7
5 -7 14 -13 21 -13z m-44 -50 c12 -14 27 -25 33 -25 5 0 7 -4 4 -10 -3 -5 -2
-10 3 -10 11 0 21 -21 32 -67 6 -27 5 -33 -9 -34 -10 0 -11 -2 -3 -6 6 -2 12
-9 12 -14 0 -6 -5 -7 -11 -3 -7 4 -9 0 -5 -14 4 -11 2 -23 -4 -27 -6 -4 -8
-16 -4 -27 4 -13 2 -18 -4 -14 -6 4 -10 -1 -9 -11 1 -18 -32 -77 -39 -70 -2 2
1 18 7 36 6 18 9 50 6 72 -4 32 -1 42 16 54 15 10 17 15 7 15 -13 0 -13 2 0
10 20 13 10 12 -30 -1 -28 -10 -30 -13 -15 -22 14 -8 15 -11 4 -18 -19 -12
-39 -11 -39 1 0 5 8 7 18 3 14 -5 13 -3 -3 10 -22 17 -40 13 -28 -6 3 -7 -3
-4 -14 6 -25 22 -40 22 -22 0 13 -15 12 -16 -9 -11 -12 4 -20 3 -18 -1 3 -4
-17 -15 -44 -25 -45 -16 -51 -16 -66 -2 -14 15 -13 16 8 17 22 2 22 2 1 6 -21
4 -21 6 -8 49 17 59 61 131 87 145 35 19 138 -7 123 -31 -2 -4 7 -18 20 -30
14 -13 25 -35 25 -49 1 -22 2 -23 11 -9 14 24 -10 77 -50 111 -18 15 -26 27
-19 27 8 0 24 -11 36 -25z m7 -45 c10 -11 16 -20 13 -20 -3 0 -13 9 -23 20
-10 11 -16 20 -13 20 3 0 13 -9 23 -20z m95 -54 c0 -26 -6 -18 -14 19 -5 22
-4 26 4 15 5 -8 10 -24 10 -34z m-523 -33 c-3 -10 -5 -4 -5 12 0 17 2 24 5 18
2 -7 2 -21 0 -30z m515 -25 c-8 -8 -9 -4 -5 13 4 13 8 18 11 10 2 -7 -1 -18
-6 -23z m-75 -4 c-3 -3 -12 -4 -19 -1 -8 3 -5 6 6 6 11 1 17 -2 13 -5z m-71
-60 c-4 -13 0 -27 9 -34 11 -9 12 -17 5 -30 -6 -10 -10 -25 -9 -32 0 -7 6 0
13 16 9 19 15 24 18 15 10 -29 -5 -48 -52 -68 -46 -20 -87 -20 -74 0 3 5 -3 6
-12 2 -16 -6 -16 -7 1 -19 15 -11 13 -14 -22 -23 -51 -15 -93 -14 -93 2 0 12
16 79 26 107 4 10 12 4 25 -22 21 -41 34 -52 49 -43 6 4 1 14 -14 26 -34 26
-48 88 -19 81 7 -2 13 1 13 6 0 6 6 10 13 9 31 -1 48 4 43 12 -8 12 12 19 52
17 28 -1 32 -4 28 -22z m52 -28 l3 -38 -26 24 c-28 26 -26 61 4 56 11 -2 17
-16 19 -42z m-423 -17 c4 -23 3 -45 -1 -49 -5 -5 -10 5 -11 23 -1 18 -5 43 -8
55 -3 14 -2 21 4 18 5 -3 12 -25 16 -47z m117 21 l67 0 -13 -37 c-7 -21 -16
-55 -20 -76 -7 -35 -10 -38 -32 -33 -14 4 -23 3 -20 -2 3 -5 -10 -4 -29 2 -19
6 -35 16 -35 23 0 14 23 11 46 -7 13 -9 11 -6 -3 11 -35 39 -27 45 12 10 20
-17 39 -31 42 -31 3 0 4 1 2 3 -2 2 -25 22 -50 45 -34 31 -46 37 -46 24 0 -9
5 -24 11 -32 9 -13 9 -13 -6 -2 -14 11 -17 10 -20 -10 -2 -13 -6 -18 -10 -12
-4 6 -2 21 5 35 14 27 11 92 -4 84 -5 -4 -9 -1 -9 6 0 7 9 9 23 5 12 -3 52 -6
89 -6z"/>
<path d="M502 784 c-10 -18 -4 -64 9 -64 5 0 9 18 9 40 0 43 -4 49 -18 24z"/>
<path d="M510 635 c-1 -5 -4 -22 -6 -37 -3 -15 1 -30 8 -34 7 -4 10 -4 6 1 -4
4 -4 15 1 24 5 9 5 25 0 36 -4 11 -8 16 -9 10z"/>
<path d="M498 402 c-3 -9 -173 -78 -203 -83 -28 -4 -77 10 -97 28 -10 9 -18
11 -18 5 0 -12 47 -52 61 -52 5 0 22 -13 37 -28 17 -18 20 -19 7 -4 l-20 25
25 -14 c14 -7 28 -13 32 -14 3 0 10 -4 15 -9 4 -5 3 -6 -3 -3 -7 4 -14 -1 -16
-11 -7 -24 2 -43 15 -36 9 5 9 4 1 -5 -16 -17 -6 -49 17 -56 10 -4 19 -11 19
-17 0 -6 -6 -6 -15 2 -13 11 -15 8 -15 -16 0 -22 3 -25 9 -15 8 12 14 13 36 3
44 -20 44 -14 3 31 -35 38 -38 46 -35 89 2 27 -1 50 -7 53 -6 3 -1 3 11 1 12
-2 23 -1 25 3 2 4 24 22 51 40 64 44 60 50 -5 7 -62 -40 -113 -54 -121 -33 -3
7 0 14 6 14 7 0 43 13 82 28 38 16 77 28 85 28 15 0 39 24 40 40 0 10 -17 9
-22 -1z"/>
</g>
</svg>