<svg version="1.0" xmlns="http://www.w3.org/2000/svg"
 width="200pt" height="200pt" viewBox="0 0 95 50"
 preserveAspectRatio="xMidYMid meet">
<g transform="translate(-68,175) scale(0.1,-0.1)"
fill="#000000" stroke="none">
<path d="M1153 1926 c-23 -8 -45 -12 -48 -10 -3 2 -1 -1 4 -7 6 -7 22 -6 55 5
56 19 73 20 132 5 34 -9 44 -15 39 -27 -4 -12 -3 -12 9 -3 19 16 25 4 33 -56
4 -40 -11 -190 -20 -200 -2 -1 -29 5 -61 13 -32 8 -60 13 -63 10 -2 -2 21 -10
52 -17 31 -7 59 -19 62 -26 6 -15 -26 -153 -36 -153 -3 0 -6 -14 -7 -30 -1
-17 3 -30 7 -30 5 0 9 5 9 11 0 5 6 7 13 3 8 -5 7 -2 -2 9 -12 16 -12 17 5 10
16 -6 17 -5 6 9 -11 13 -9 28 13 89 14 40 25 74 25 77 0 2 15 1 33 -2 l32 -6
-32 13 c-17 6 -34 15 -37 18 -5 5 13 158 20 167 1 2 16 -4 33 -14 26 -15 31
-25 32 -59 l2 -40 6 47 c11 75 17 65 20 -30 2 -93 -14 -160 -47 -190 -10 -9
-12 -13 -5 -8 7 5 13 5 13 2 0 -15 -33 -71 -47 -79 -7 -5 -11 -12 -8 -17 5 -9
-46 -121 -67 -146 -10 -14 -82 2 -138 31 -50 26 -170 151 -170 178 0 37 28
130 42 138 7 4 9 11 6 14 -4 4 -3 17 2 30 7 18 2 30 -22 60 -31 36 -31 37 -14
72 9 19 11 31 5 27 -7 -4 -10 -2 -7 6 2 7 12 14 22 16 10 1 28 11 40 22 14 13
31 18 51 16 26 -4 27 -3 12 7 -10 6 -27 9 -38 6 -10 -3 -17 -1 -13 4 3 5 1 9
-5 9 -21 0 -78 -60 -105 -110 -28 -52 -31 -77 -24 -200 2 -37 -13 -130 -21
-126 -4 3 -7 -20 -7 -50 -1 -48 -5 -60 -33 -88 -23 -24 -29 -35 -19 -39 9 -4
10 -6 1 -6 -7 -1 -13 -6 -13 -12 0 -8 4 -8 15 1 23 19 35 3 31 -44 -4 -50 -21
-87 -39 -82 -6 1 -9 1 -4 -1 4 -3 5 -9 1 -14 -11 -18 6 -8 29 17 20 21 24 37
25 92 1 37 3 74 5 82 12 46 17 73 27 153 14 101 31 105 37 10 2 -31 7 -59 12
-62 4 -4 18 -24 29 -46 21 -39 91 -126 92 -113 0 3 -16 25 -35 49 -60 70 -61
87 -3 33 56 -54 93 -76 141 -88 22 -5 27 -11 22 -24 -4 -9 -8 -30 -10 -47 -4
-55 -16 -85 -35 -85 -32 0 -72 -19 -64 -31 5 -8 9 -8 14 1 5 8 20 11 39 8 17
-2 31 -1 31 4 0 4 5 8 10 8 6 0 10 -7 10 -15 0 -18 16 -20 26 -3 4 7 3 8 -4 4
-11 -7 -17 6 -13 27 1 5 -3 6 -9 2 -13 -8 -12 -3 8 76 16 61 19 65 39 58 19
-7 26 -1 56 54 18 34 49 97 68 139 18 42 37 74 41 72 4 -3 5 1 2 9 -3 8 5 36
17 61 19 41 21 57 15 128 -4 44 -13 93 -21 108 -27 52 -131 128 -161 116 -8
-3 -14 -1 -14 4 0 14 -108 11 -157 -4z m-58 -56 c-3 -5 -16 -15 -28 -21 -21
-10 -21 -9 2 10 25 23 36 27 26 11z m365 -40 c11 -16 17 -35 14 -44 -5 -13
-11 -13 -45 7 -21 12 -39 30 -39 39 0 9 -3 23 -6 32 -10 27 53 -2 76 -34z
m-446 -70 c-9 -25 -18 -58 -21 -75 -8 -48 -16 -44 -11 5 5 45 34 127 43 119 2
-3 -3 -25 -11 -49z m14 -51 c-20 -13 -28 -11 -22 5 3 8 12 12 21 9 12 -5 12
-7 1 -14z m26 -25 c7 -19 -1 -55 -24 -107 -17 -38 -18 -38 -24 -12 -4 14 -4
31 0 37 4 7 3 8 -4 4 -7 -4 -12 -5 -12 -2 0 2 -3 13 -6 23 -5 15 -4 15 5 3 9
-12 11 -10 11 12 0 25 22 58 40 58 4 0 11 -7 14 -16z m-128 -378 c0 -14 -6
-22 -13 -19 -9 4 -10 10 -2 24 13 25 17 24 15 -5z"/>
<path d="M1202 1849 c-13 -20 -14 -20 -28 -2 -14 17 -14 16 -4 -5 6 -12 8 -27
5 -32 -3 -5 -1 -11 5 -15 5 -3 10 0 10 8 0 8 9 26 21 41 11 14 17 26 12 26 -4
0 -14 -9 -21 -21z"/>
<path d="M1178 1550 c2 -72 0 -130 -5 -130 -5 0 -35 15 -66 34 -31 19 -59 31
-62 26 -7 -11 74 -80 94 -80 9 0 3 7 -14 16 -16 8 -37 22 -45 31 -17 18 -12
16 52 -17 l47 -24 -4 -45 c-4 -43 -1 -38 11 17 4 19 11 22 49 22 24 0 46 3 48
8 3 4 -16 7 -41 7 l-47 0 -3 122 c-2 92 0 122 10 126 7 2 5 3 -4 2 -9 -2 -18
1 -20 6 -2 5 -2 -49 0 -121z"/>
<path d="M1282 1383 l28 -4 -26 -51 c-14 -27 -20 -47 -14 -43 5 3 22 29 35 56
l25 49 -37 -1 c-30 -2 -32 -3 -11 -6z"/>
<path d="M960 1337 c0 -21 41 -130 46 -124 2 2 -2 20 -10 39 -8 19 -16 46 -18
61 -4 30 -18 49 -18 24z"/>
<path d="M1065 1282 c5 -34 52 -161 65 -175 4 -5 5 4 2 19 -4 20 -2 25 8 19 9
-5 11 -4 6 4 -4 6 -11 9 -16 6 -4 -3 -13 24 -20 58 -13 70 -34 116 -25 57 l5
-35 -15 40 c-14 38 -14 38 -10 7z m32 -64 c-3 -8 -6 -5 -6 6 -1 11 2 17 5 13
3 -3 4 -12 1 -19z"/>
</g>
</svg>