<svg version="1.0" xmlns="http://www.w3.org/2000/svg"
 width="200pt" height="200pt" viewBox="0 0 90 90"
 preserveAspectRatio="xMidYMid meet">
<g transform="translate(-215,105) scale(0.1,-0.1)"
fill="#000000" stroke="none">
<path d="M2472 991 c3 -9 -14 -27 -41 -45 -57 -39 -116 -116 -130 -170 -14
-55 -20 -147 -9 -140 4 3 8 -1 8 -8 0 -27 21 -88 36 -103 9 -8 12 -15 7 -15
-4 0 0 -7 10 -14 21 -16 60 -122 53 -142 -3 -8 -1 -14 4 -14 6 0 10 -12 10
-27 0 -14 3 -23 6 -20 6 6 -11 110 -23 146 -6 14 -4 15 13 1 11 -8 6 -2 -10
14 -29 26 -26 28 19 10 8 -3 15 -2 15 3 0 10 -58 37 -77 36 -7 0 -11 3 -8 7 3
5 -4 23 -14 42 -11 18 -22 44 -25 58 -2 14 -7 32 -10 40 -10 25 11 148 28 165
8 8 18 24 21 35 4 11 10 18 15 15 5 -3 11 -1 15 5 3 5 24 10 45 10 46 0 93
-35 108 -80 10 -26 8 -31 -16 -48 -48 -34 -140 -82 -164 -86 -20 -3 -23 -9
-22 -45 0 -33 7 -48 34 -76 21 -22 38 -31 43 -26 9 9 -38 60 -55 61 -11 0 -5
54 7 62 18 13 22 9 17 -21 -3 -22 4 -35 32 -63 32 -31 34 -37 19 -42 -10 -4
-13 -10 -7 -14 16 -11 54 -64 54 -75 0 -5 -8 -3 -17 4 -10 7 -7 1 6 -14 20
-22 27 -25 40 -14 10 8 13 8 8 0 -4 -6 6 -22 23 -36 l30 -25 -28 -10 c-26 -9
-25 -9 10 -9 21 1 34 4 28 7 -5 3 -5 11 -1 19 7 11 14 10 37 -2 21 -11 40 -13
69 -7 22 4 33 8 25 9 -13 1 -13 3 0 12 12 9 11 9 -5 3 -40 -15 -124 -6 -143
16 -8 8 -11 9 -7 3 9 -18 -10 -16 -25 2 -11 13 -8 15 16 15 42 0 75 -11 68
-22 -4 -6 1 -6 13 0 11 6 59 9 109 7 150 -5 145 -4 99 -24 -26 -12 -48 -15
-61 -10 -11 4 -27 3 -35 -3 -12 -8 -12 -9 1 -5 8 2 24 1 35 -3 18 -7 16 -10
-13 -20 -24 -9 -30 -15 -21 -21 7 -4 19 -3 25 2 8 7 15 6 20 -2 4 -8 3 -9 -4
-5 -8 5 -10 1 -5 -10 5 -13 3 -15 -8 -9 -10 6 -11 5 -3 -4 6 -7 9 -32 6 -60
-2 -27 0 -51 4 -54 5 -3 9 14 10 36 2 105 17 157 46 157 6 0 4 -8 -3 -17 -8
-9 7 -1 32 18 l46 34 2 74 c1 41 3 77 3 80 4 18 -15 156 -30 216 -17 71 -19
80 -21 103 0 7 -6 10 -12 7 -6 -4 -9 0 -7 11 2 12 -2 18 -11 16 -8 -2 -11 3
-8 12 7 17 -27 51 -42 42 -5 -3 -24 3 -43 13 -55 33 -122 43 -190 30 -50 -10
-62 -10 -70 2 -8 12 -9 12 -6 0z m227 -43 c30 -22 51 -49 67 -85 32 -71 31
-75 -12 -68 -32 5 -126 -6 -176 -21 -12 -3 -19 5 -28 31 -6 19 -25 49 -42 65
-26 26 -36 30 -70 26 -22 -3 -47 -10 -56 -17 -10 -6 3 7 28 30 52 47 111 69
191 70 47 1 61 -4 98 -31z m85 -13 c11 0 21 -7 24 -15 5 -13 3 -13 -14 0 -16
12 -15 10 2 -10 59 -68 80 -143 93 -332 11 -155 8 -188 -20 -181 -10 3 -18 8
-17 12 1 3 -2 40 -6 81 -11 111 -14 129 -25 200 -6 36 -11 68 -11 71 0 3 12 5
28 3 l27 -4 -29 14 c-23 10 -33 26 -47 71 -10 32 -30 71 -46 88 -27 29 -27 29
-3 16 14 -8 34 -14 44 -14z m-8 -161 c17 -4 22 -18 32 -87 6 -45 14 -113 17
-152 3 -38 8 -85 11 -103 l5 -33 -49 2 c-47 2 -50 4 -60 37 -6 20 -8 40 -5 45
3 6 2 7 -4 4 -5 -3 -17 16 -25 43 l-16 49 37 6 c20 4 43 7 51 9 8 1 -6 4 -32
7 -25 2 -44 1 -41 -3 2 -5 -2 -8 -11 -8 -8 0 -20 16 -26 35 -6 19 -15 35 -20
35 -4 0 -13 13 -20 29 -11 27 -50 72 -50 59 0 -3 15 -29 34 -57 41 -60 120
-257 110 -273 -4 -7 -3 -8 4 -4 7 4 12 3 12 -3 0 -7 -17 -9 -42 -6 -24 3 -74
7 -111 9 -38 3 -70 6 -71 8 -35 54 -35 53 -10 75 13 12 24 20 24 17 0 -8 119
56 126 68 5 7 -4 5 -19 -5 -15 -9 -27 -14 -27 -10 0 5 -4 3 -8 -3 -11 -18 -70
-45 -76 -35 -3 5 0 11 7 14 15 6 42 101 39 137 -2 24 -1 23 12 -5 19 -40 20
-24 1 22 -8 19 -15 41 -15 49 0 23 157 44 216 28z m-228 -91 c-3 -42 -13 -85
-27 -110 -12 -24 -18 -43 -14 -43 5 -1 -2 -9 -15 -20 -24 -20 -60 -17 -43 4 5
7 3 30 -5 61 -7 28 -13 54 -14 58 0 5 -4 6 -9 3 -5 -4 -3 -19 6 -37 8 -17 12
-33 9 -36 -11 -11 -37 21 -33 39 3 10 0 18 -5 18 -6 0 -6 6 2 15 6 8 8 20 4
27 -5 7 5 4 21 -6 l30 -19 -18 20 c-17 20 -17 21 40 56 32 19 62 36 67 36 5 1
7 -29 4 -66z"/>
<path d="M2384 788 c0 -32 5 -58 10 -58 4 0 6 -7 3 -15 -4 -8 -1 -17 4 -21 11
-6 6 45 -11 116 -7 30 -8 27 -6 -22z"/>
</g>
</svg>